# xmcd
#
# Track frame offsets:
#	150
#	18290
#	52805
#	71900
#	94122
#	118990
#	143217
#	160725
#
# Disc length: 2543 seconds
#
# Revision: 0
# Processed by: cddbd v1.5PL3 Copyright (c) Steve Scherf et al.
# Submitted via: dBpowerAMP V4.0
#
DISCID=6909ed08
DTITLE=Abra Vocabra - Vocal Contact
DYEAR=1991
DGENRE=Blues
TTITLE0=Moanin'
TTITLE1=Papa Loco
TTITLE2=Mango and lime
TTITLE3=Simelibärg
TTITLE4=Manteca
TTITLE5=Why should I stay
TTITLE6=My funny Valentine
TTITLE7=The hardest word
EXTD=
EXTT0=
EXTT1=
EXTT2=
EXTT3=
EXTT4=
EXTT5=
EXTT6=
EXTT7=
PLAYORDER=
